<?xml version="1.0" encoding="UTF-8" standalone="no"?>
<svg
   xmlns:dc="http://purl.org/dc/elements/1.1/"
   xmlns:cc="http://creativecommons.org/ns#"
   xmlns:rdf="http://www.w3.org/1999/02/22-rdf-syntax-ns#"
   xmlns:svg="http://www.w3.org/2000/svg"
   xmlns="http://www.w3.org/2000/svg"
   xmlns:sodipodi="http://sodipodi.sourceforge.net/DTD/sodipodi-0.dtd"
   xmlns:inkscape="http://www.inkscape.org/namespaces/inkscape"
   width="18.159"
   height="18.159"
   version="1.1"
   id="svg12"
   sodipodi:docname="valkonencave.svg"
   inkscape:version="0.92.2 5c3e80d, 2017-08-06">
  <metadata
     id="metadata18">
    <rdf:RDF>
      <cc:Work
         rdf:about="">
        <dc:format>image/svg+xml</dc:format>
        <dc:type
           rdf:resource="http://purl.org/dc/dcmitype/StillImage" />
        <dc:title></dc:title>
      </cc:Work>
    </rdf:RDF>
  </metadata>
  <defs
     id="defs16" />
  <sodipodi:namedview
     pagecolor="#ffffff"
     bordercolor="#666666"
     borderopacity="1"
     objecttolerance="10"
     gridtolerance="10"
     guidetolerance="10"
     inkscape:pageopacity="0"
     inkscape:pageshadow="2"
     inkscape:window-width="1680"
     inkscape:window-height="1005"
     id="namedview14"
     showgrid="false"
     inkscape:zoom="12.99631"
     inkscape:cx="-0.923339"
     inkscape:cy="9.0795002"
     inkscape:window-x="0"
     inkscape:window-y="1"
     inkscape:window-maximized="1"
     inkscape:current-layer="svg12" />
  <g
     id="g5">
    <title
       id="title2">background</title>
    <rect
       fill="none"
       id="canvas_background"
       height="402"
       width="582"
       y="-1"
       x="-1" />
  </g>
  <g
     id="g10"
     style="fill:#ffffff">
    <title
       id="title7">Layer 1</title>
    <path
       id="svg_3"
       d="m15.457,10.174c-1.877,-2.358 -1.562,-4.979 -3.056,-4.979c-0.646,0 -1.588,0.434 -2.053,1.154c-0.524,-2.227 -1.52,-3.733 -2.664,-3.733c-1.368,0 -2.525,2.151 -2.916,5.117c-0.274,-0.253 -0.93,-0.398 -1.254,-0.398c-1.17,0 -1.725,1.572 -2.118,4.105c-0.393,2.532 -2.174,4.104 -1.004,4.104l5.779,0c-0.01,-0.15 -0.016,-0.304 -0.016,-0.459c0,-2.351 1.183,-4.257 2.642,-4.257c1.458,0 2.642,1.906 2.642,4.257c0,0.155 -0.006,0.309 -0.017,0.459l6.174,0c1.497,0.001 -0.26,-3.012 -2.139,-5.37z"
       fill="#ffffff"
       style="fill:#ffffff" />
  </g>
</svg>
