<svg width="32" height="32" xmlns="http://www.w3.org/2000/svg">
 <title/>

 <g>
  <title>background</title>
  <rect fill="none" id="canvas_background" height="402" width="582" y="-1" x="-1"/>
 </g>
 <g>
  <title fill="#ffffff">Layer 1</title>
  <path fill="#ffffff" id="Oval 278" d="m16,30c-7.73199,0 -14,-6.26801 -14,-14c0,-7.73199 6.26801,-14 14,-14c7.73199,0 14,6.26801 14,14c0,7.73199 -6.26801,14 -14,14zm2.82843,-11.17157c-1.76777,1.76776 -10.6066,4.94974 -10.6066,4.94974c0,0 3.18198,-8.83883 4.94974,-10.6066c1.76777,-1.76776 10.6066,-4.94974 10.6066,-4.94974c0,0 -3.18198,8.83883 -4.94974,10.6066zm-2.82843,9.17157c6.62742,0 12,-5.37258 12,-12c0,-6.62742 -5.37258,-12 -12,-12c-6.62742,0 -12,5.37258 -12,12c0,6.62742 5.37258,12 12,12zm-1.41421,-10.58579c0.78105,0.78105 2.04737,0.78105 2.82842,0c0.78105,-0.78105 0.78105,-2.04737 0,-2.82842c-0.78105,-0.78105 -2.04737,-0.78105 -2.82842,0c-0.78105,0.78105 -0.78105,2.04737 0,2.82842zm0,0"/>
 </g>
</svg>