<svg width="512" height="512" xmlns="http://www.w3.org/2000/svg">
 <title/>

 <g>
  <title>background</title>
  <rect fill="none" id="canvas_background" height="402" width="582" y="-1" x="-1"/>
 </g>
 <g>
  <title>Layer 1</title>
  <path id="svg_1" fill="#ffffff" d="m482.744818,128.979l-98.619,-97.935a32,32 0 0 0 -45.144,0.047l-307.26,306.388a32,32 0 0 0 -0.032,45.286l98.713,98.714a32,32 0 0 0 45.255,0l11.817,-11.815a8,8 0 0 0 0,-11.314l-21.015,-21.015a8,8 0 1 1 11.315,-11.314l21.016,21.015a8,8 0 0 0 11.313,0l20.742,-20.742a8,8 0 0 0 0,-11.313l-21.015,-21.015a8,8 0 1 1 11.313,-11.315l21.016,21.016a8,8 0 0 0 11.314,0l20.741,-20.742a8,8 0 0 0 0,-11.314l-21.019,-21.011a8,8 0 1 1 11.314,-11.315l21.015,21.015a8,8 0 0 0 11.314,0l20.742,-20.741a8,8 0 0 0 0,-11.314l-21.015,-21.015a8,8 0 1 1 11.309,-11.318l21.016,21.016a8,8 0 0 0 11.313,0l20.742,-20.741a8,8 0 0 0 0,-11.314l-21.011,-21.016a8,8 0 0 1 11.313,-11.314l21.016,21.016a8,8 0 0 0 11.313,0l20.742,-20.742a8,8 0 0 0 0,-11.314l-21.015,-21.015a8,8 0 0 1 0.176,-11.488a8.224,8.224 0 0 1 11.375,0.408l20.778,20.778a8,8 0 0 0 11.313,0l20.743,-20.742a8,8 0 0 0 0,-11.314l-21.014,-21.011a8,8 0 0 1 0.176,-11.485a8.223,8.223 0 0 1 11.375,0.409l20.778,20.778a8,8 0 0 0 11.314,0l12.508,-12.509a32,32 0 0 0 -0.081,-45.333zm-108.4,-32.47a18,18 0 1 1 0,-25.456a18,18 0 0 1 0.002,25.456l-0.002,0z"/>
 </g>
</svg>