<svg width="800" height="800" xmlns="http://www.w3.org/2000/svg">

 <g>
  <title>background</title>
  <rect fill="none" id="canvas_background" height="402" width="582" y="-1" x="-1"/>
 </g>
 <g>
  <title>Layer 1</title>
  <path fill="#ffffff" id="svg_2" d="m768,586.7l-39.5,0l-46.9,-183.5c0,-1.1 0,-1.1 -1.1,-2.1c0,-1.1 -1.1,-2.1 -1.1,-2.1c0,-1.1 -1.1,-2.1 -1.1,-3.2s-1.1,-1.1 -1.1,-2.1c-1.1,-1.1 -1.1,-2.1 -2.1,-3.2c0,-1.1 -1.1,-1.1 -1.1,-2.1c-1.1,-1.1 -2.1,-2.1 -3.2,-2.1s-1.1,-1.1 -2.1,-1.1l0,0l-116.2,-81.2l-114.1,-212.3c-4.3,-8.5 -12.8,-14.9 -22.4,-17.1c-9.6,-1.1 -20.3,1.1 -26.7,8.5l-133.3,128.1l0,0l0,0c-1.1,1.1 -2.1,2.1 -3.2,4.3l-1.1,1.1c-1.1,2.1 -2.1,4.3 -3.2,6.4l0,0l-84.3,215.5l-96,148.3l-36.2,0c-18.1,0 -32,13.9 -32,32s13.9,32 32,32l672,0l0,0l0,0l64,0c18.1,0 32,-13.9 32,-32s-13.9,-32.1 -32,-32.1zm-365.9,-427.8l97.1,181.3c2.1,4.3 5.3,8.5 9.6,10.7l34.1,23.5l-56.5,-1.1l-96,26.7l4.3,-92.8l-71.5,-72.5l78.9,-75.8zm-258.1,427.8l74.7,-116.3c1.1,-2.1 2.1,-3.2 3.2,-5.3l67.2,-172.8l40.5,40.5l-6.4,152.5l170.7,-48l131.2,4.3l37.3,145.1l-518.4,0z"/>
 </g>
</svg>